<svg width="90" height="117" viewBox="0 0 90 117" fill="none" xmlns="http://www.w3.org/2000/svg">
<path d="M9.93802 114H6.62602V105H9.53002C10.85 105 12.026 105.84 12.026 107.316C12.026 108.144 11.558 108.756 10.898 109.128C11.918 109.428 12.674 110.28 12.674 111.444C12.674 113.064 11.39 114 9.93802 114ZM8.30602 106.368V108.648H9.09802C9.83002 108.648 10.358 108.216 10.358 107.472C10.358 106.74 9.79402 106.368 9.06202 106.368H8.30602ZM8.30602 109.944V112.62H9.47002C10.322 112.62 10.982 112.2 10.982 111.3C10.982 110.4 10.346 109.944 9.49402 109.944H8.30602ZM15.0308 114H13.1468L16.7228 104.94H18.2948L21.8828 114H19.9868L19.2428 112.032H15.7748L15.0308 114ZM17.5148 107.22L16.2428 110.652H18.7748L17.5148 107.22ZM27.1902 114.156C24.4662 114.156 22.4502 112.188 22.4502 109.5C22.4502 106.8 24.4662 104.844 27.1902 104.844C28.2582 104.844 29.0862 105.108 29.6862 105.504V107.568C29.1822 106.932 28.3542 106.452 27.2862 106.452C25.5102 106.452 24.2742 107.724 24.2742 109.5C24.2742 111.264 25.5102 112.536 27.2862 112.536C28.3542 112.536 29.1822 112.068 29.6862 111.42V113.496C29.0862 113.88 28.2582 114.156 27.1902 114.156ZM33.0912 114H31.4112V105H33.0912V108.876L36.4152 105H38.5992L34.9752 109.02L38.9952 114H36.8352L33.8832 110.244L33.0912 111.096V114ZM45.0889 114H43.3969V106.44H41.3809V105H47.1049V106.44H45.0889V114ZM52.5401 114.156C49.7561 114.156 47.7041 112.188 47.7041 109.5C47.7041 106.8 49.7561 104.844 52.5401 104.844C55.3241 104.844 57.3641 106.8 57.3641 109.5C57.3641 112.188 55.3241 114.156 52.5401 114.156ZM52.5401 112.536C54.2921 112.536 55.5761 111.264 55.5761 109.5C55.5761 107.724 54.2921 106.464 52.5401 106.464C50.7761 106.464 49.4921 107.724 49.4921 109.5C49.4921 111.264 50.7761 112.536 52.5401 112.536ZM64.3077 114H62.6157V106.44H60.5997V105H66.3237V106.44H64.3077V114ZM71.7588 114.156C68.9748 114.156 66.9228 112.188 66.9228 109.5C66.9228 106.8 68.9748 104.844 71.7588 104.844C74.5428 104.844 76.5828 106.8 76.5828 109.5C76.5828 112.188 74.5428 114.156 71.7588 114.156ZM71.7588 112.536C73.5108 112.536 74.7948 111.264 74.7948 109.5C74.7948 107.724 73.5108 106.464 71.7588 106.464C69.9948 106.464 68.7108 107.724 68.7108 109.5C68.7108 111.264 69.9948 112.536 71.7588 112.536ZM79.849 114H78.169V105H81.133C82.681 105 83.977 106.056 83.977 107.712C83.977 109.38 82.681 110.436 81.133 110.436H79.849V114ZM79.849 106.368V109.056H80.809C81.637 109.056 82.237 108.576 82.237 107.712C82.237 106.848 81.637 106.368 80.809 106.368H79.849Z" fill="black"/>
<path d="M46.0607 0.939339C45.4749 0.353554 44.5251 0.353554 43.9393 0.939339L34.3934 10.4853C33.8076 11.0711 33.8076 12.0208 34.3934 12.6066C34.9792 13.1924 35.9289 13.1924 36.5147 12.6066L45 4.12132L53.4853 12.6066C54.0711 13.1924 55.0208 13.1924 55.6066 12.6066C56.1924 12.0208 56.1924 11.0711 55.6066 10.4853L46.0607 0.939339ZM46.5 77L46.5 2L43.5 2L43.5 77L46.5 77Z" fill="black"/>
</svg>
