<svg width="90" height="121" viewBox="0 0 90 121" fill="none" xmlns="http://www.w3.org/2000/svg">
<path d="M18.73 118.144C16.762 118.144 15.85 117.148 15.502 115.804L17.002 115.276C17.314 116.2 17.758 116.68 18.766 116.68C19.522 116.68 20.146 116.308 20.146 115.504C20.146 114.7 19.426 114.268 18.442 113.908C17.038 113.404 16.03 112.744 16.03 111.256C16.03 109.672 17.362 108.856 18.706 108.856C20.59 108.856 21.094 109.6 21.442 110.56L20.026 111.28C19.762 110.632 19.462 110.32 18.778 110.32C18.178 110.32 17.722 110.608 17.722 111.22C17.722 111.94 18.502 112.204 19.342 112.492C21.058 113.092 21.838 113.824 21.838 115.444C21.838 117.148 20.518 118.144 18.73 118.144ZM28.1691 118H23.2491V109H28.1691V110.44H24.9291V112.504H27.8091V113.944H24.9291V116.56H28.1691V118ZM34.8839 118H29.9639V109H34.8839V110.44H31.6439V112.504H34.5239V113.944H31.6439V116.56H34.8839V118ZM40.3355 118H38.6555L40.3475 108.94H41.4995L44.0555 115.036L46.6235 108.94H47.7755L49.4555 118H47.7755L46.8155 112.372L44.4515 118H43.6595L41.2835 112.372L40.3355 118ZM55.2178 118.156C52.4338 118.156 50.3818 116.188 50.3818 113.5C50.3818 110.8 52.4338 108.844 55.2178 108.844C58.0018 108.844 60.0418 110.8 60.0418 113.5C60.0418 116.188 58.0018 118.156 55.2178 118.156ZM55.2178 116.536C56.9698 116.536 58.2538 115.264 58.2538 113.5C58.2538 111.724 56.9698 110.464 55.2178 110.464C53.4538 110.464 52.1698 111.724 52.1698 113.5C52.1698 115.264 53.4538 116.536 55.2178 116.536ZM63.308 118H61.628V109H64.592C66.08 109 67.352 109.996 67.352 111.652C67.352 112.96 66.596 113.812 65.552 114.112L67.916 118H65.96L63.932 114.256H63.308V118ZM63.308 110.368V112.936H64.268C65.036 112.936 65.672 112.516 65.672 111.652C65.672 110.788 65.036 110.368 64.268 110.368H63.308ZM74.0831 118H69.1631V109H74.0831V110.44H70.8431V112.504H73.7231V113.944H70.8431V116.56H74.0831V118Z" fill="black"/>
<path d="M43.9393 76.0607C44.5251 76.6464 45.4749 76.6464 46.0607 76.0607L55.6066 66.5147C56.1924 65.9289 56.1924 64.9792 55.6066 64.3934C55.0208 63.8076 54.0711 63.8076 53.4853 64.3934L45 72.8787L36.5147 64.3934C35.9289 63.8076 34.9792 63.8076 34.3934 64.3934C33.8076 64.9792 33.8076 65.9289 34.3934 66.5147L43.9393 76.0607ZM43.5 -6.55671e-08L43.5 75L46.5 75L46.5 6.55671e-08L43.5 -6.55671e-08Z" fill="black"/>
</svg>
